<svg id="Capa_1" data-name="Capa 1" xmlns="http://www.w3.org/2000/svg" viewBox="0 0 511.24 114.39"><defs><style>.cls-1{fill:none;}.cls-1,.cls-2{stroke:#1d1d1b;stroke-miterlimit:10;stroke-width:0.25px;}.cls-2{fill:#faef83;}.cls-3{fill:#1d1d1b;}</style></defs><rect class="cls-1" x="0.5" y="2.22" width="510.24" height="109.94" rx="9.31"/><rect class="cls-2" x="0.41" y="2.51" width="127.68" height="109.94" rx="9.31"/><path class="cls-3" d="M223.35,15.31h1.83l-5,13.24h-2l-5-13.24H215l4.16,11.42Z"/><path class="cls-3" d="M233.08,28.69a6.54,6.54,0,0,1-6.65-6.77,6.65,6.65,0,1,1,13.3,0A6.52,6.52,0,0,1,233.08,28.69Zm0-1.5c2.8,0,4.89-2,4.89-5.27s-2.09-5.26-4.89-5.26-4.88,2-4.88,5.26S230.29,27.19,233.08,27.19Z"/><path class="cls-3" d="M241.11,27.75c2.09-1.68,4.07-3.27,4.07-4.9,0-.88-.38-1.54-1.46-1.54A1.58,1.58,0,0,0,242.11,23h-1a2.43,2.43,0,0,1,2.56-2.57,2.23,2.23,0,0,1,2.46,2.35c0,2-2.13,3.66-3.55,4.82h3.78v.83h-5.29Z"/><path class="cls-3" d="M251.28,15.41h1.86L258,26.27l4.86-10.86h1.85V28.55H263v-9.8l-4.37,9.8h-1.22L253,18.73v9.82h-1.72Z"/><path class="cls-3" d="M271.93,18A4.3,4.3,0,0,1,275.8,20v-1.9h1.75V28.55H275.8V26.62a4.33,4.33,0,0,1-3.89,2.1c-2.77,0-4.92-2.18-4.92-5.41S269.14,18,271.93,18Zm.34,1.5a3.52,3.52,0,0,0-3.52,3.84,3.54,3.54,0,1,0,7.05,0A3.57,3.57,0,0,0,272.27,19.47Z"/><path class="cls-3" d="M283.44,24.68l-2.37,3.87h-1.81l3.37-5.16-3.37-5.25h2L283.69,22,286,18.14h1.81l-3.34,5.15,3.36,5.26h-2Z"/><path class="cls-3" d="M400,19.47h1.86l4.86,10.87,4.86-10.87h1.85V32.62h-1.73V22.81l-4.37,9.81h-1.22l-4.39-9.83v9.83H400Z"/><path class="cls-3" d="M423.51,20.78h-5.4v4.43h4.83v1.42h-4.83v4.56h5.4v1.43h-7.13V19.36h7.13Z"/><path class="cls-3" d="M425.31,19.38h9v1.4h-3.61V32.62h-1.73V20.78h-3.63Z"/><path class="cls-3" d="M439.28,32.76c-2,0-3.49-1.12-3.58-2.72h1.5c.08.85.84,1.49,2.07,1.49s1.79-.58,1.79-1.3c0-1.95-5.19-.81-5.19-4.08,0-1.35,1.27-2.45,3.22-2.45s3.22,1,3.32,2.75H441A1.69,1.69,0,0,0,439,24.93c-1.07,0-1.71.52-1.71,1.22,0,2.08,5.09.94,5.16,4.08C442.49,31.67,441.22,32.76,439.28,32.76Z"/><path class="cls-3" d="M12.81,38.16a6.91,6.91,0,0,1,6.79,4.43H17.31a4.61,4.61,0,0,0-4.5-2.75c-3.06,0-5.35,2.23-5.35,5.82s2.29,5.79,5.35,5.79a4.61,4.61,0,0,0,4.5-2.73H19.6a6.89,6.89,0,0,1-6.79,4.39,7.17,7.17,0,0,1-7.3-7.45A7.21,7.21,0,0,1,12.81,38.16Z"/><path class="cls-3" d="M27.18,41.29a4.76,4.76,0,0,1,4.28,2.29v-2.1h1.93V53H31.46V50.84a4.79,4.79,0,0,1-4.3,2.33c-3.07,0-5.44-2.41-5.44-6S24.09,41.29,27.18,41.29ZM27.56,43a3.89,3.89,0,0,0-3.89,4.24c0,2.71,1.79,4.31,3.89,4.31s3.9-1.58,3.9-4.29A3.94,3.94,0,0,0,27.56,43Z"/><path class="cls-3" d="M42.84,41.29c3.09,0,5.46,2.31,5.46,5.9s-2.37,6-5.46,6a5,5,0,0,1-4.3-2.3v7.58H36.63v-17h1.91V43.6A4.84,4.84,0,0,1,42.84,41.29ZM42.45,43a4,4,0,0,0-3.91,4.26,4,4,0,0,0,3.91,4.29c2.12,0,3.9-1.6,3.9-4.31A3.88,3.88,0,0,0,42.45,43Z"/><path class="cls-3" d="M55.57,41.29a4.76,4.76,0,0,1,4.28,2.29v-2.1h1.94V53H59.85V50.84a4.79,4.79,0,0,1-4.3,2.33c-3.07,0-5.44-2.41-5.44-6S52.48,41.29,55.57,41.29ZM56,43a3.89,3.89,0,0,0-3.89,4.24c0,2.71,1.79,4.31,3.89,4.31s3.9-1.58,3.9-4.29A3.94,3.94,0,0,0,56,43Z"/><path class="cls-3" d="M69.91,41.29c2.86,0,4.73,1.47,5.31,3.89h-2a3.14,3.14,0,0,0-3.26-2.27c-2.1,0-3.65,1.49-3.65,4.3s1.55,4.35,3.65,4.35a3.09,3.09,0,0,0,3.26-2.27h2a5.1,5.1,0,0,1-5.31,3.88c-3.27,0-5.6-2.3-5.6-6S66.64,41.29,69.91,41.29Z"/><path class="cls-3" d="M77.45,38.31a1.28,1.28,0,0,1,1.3-1.3,1.3,1.3,0,0,1,0,2.6A1.28,1.28,0,0,1,77.45,38.31Zm.32,3.17h1.91V53H77.77Z"/><path class="cls-3" d="M87.7,41.29A5,5,0,0,1,92,43.54V37.45h1.93V53H92V50.82a4.72,4.72,0,0,1-4.28,2.35c-3.09,0-5.46-2.41-5.46-6S84.59,41.29,87.7,41.29ZM88.06,43a3.89,3.89,0,0,0-3.89,4.24c0,2.71,1.79,4.31,3.89,4.31S92,49.92,92,47.21A3.94,3.94,0,0,0,88.06,43Z"/><path class="cls-3" d="M101.87,41.29a4.77,4.77,0,0,1,4.29,2.29v-2.1h1.93V53h-1.93V50.84a4.82,4.82,0,0,1-4.31,2.33c-3.06,0-5.43-2.41-5.43-6S98.79,41.29,101.87,41.29Zm.38,1.66c-2.1,0-3.88,1.53-3.88,4.24s1.78,4.31,3.88,4.31a4,4,0,0,0,3.91-4.29A4,4,0,0,0,102.25,43Z"/><path class="cls-3" d="M116.09,41.29a5,5,0,0,1,4.26,2.25V37.45h1.94V53h-1.94V50.82a4.72,4.72,0,0,1-4.28,2.35c-3.09,0-5.46-2.41-5.46-6S113,41.29,116.09,41.29Zm.36,1.66a3.89,3.89,0,0,0-3.89,4.24c0,2.71,1.79,4.31,3.89,4.31s3.9-1.58,3.9-4.29A3.94,3.94,0,0,0,116.45,43Z"/><path class="cls-3" d="M27.15,74.93H20.76l-1.17,3.26h-2l5.29-14.55h2.21l5.27,14.55h-2ZM24,66l-2.65,7.39H26.6Z"/><path class="cls-3" d="M37.63,78.38c-3.28,0-5.69-2.31-5.69-6s2.33-5.92,5.69-5.92A5.28,5.28,0,0,1,43.15,72a8.82,8.82,0,0,1-.07,1.16H33.89a3.62,3.62,0,0,0,3.74,3.61,3.16,3.16,0,0,0,3.23-2.12h2.06A5.18,5.18,0,0,1,37.63,78.38Zm-3.72-6.79h7.26a3.37,3.37,0,0,0-3.63-3.48A3.56,3.56,0,0,0,33.91,71.59Z"/><path class="cls-3" d="M47.58,78.19H45.67V66.68h1.91v1.87a3.88,3.88,0,0,1,3.72-2.08v2h-.51c-1.82,0-3.21.82-3.21,3.49Z"/><path class="cls-3" d="M58.52,78.38a5.95,5.95,0,1,1,5.9-6A5.7,5.7,0,0,1,58.52,78.38Zm0-1.68a3.92,3.92,0,0,0,3.95-4.29c0-2.9-1.91-4.26-3.89-4.26s-3.84,1.36-3.84,4.26S56.53,76.7,58.52,76.7Zm2.14-15.08v1.66l-4.47,2.39V64.24Z"/><path class="cls-3" d="M73.16,66.49c3.1,0,5.46,2.31,5.46,5.9s-2.38,6-5.46,6a4.82,4.82,0,0,1-4.31-2.31v2.12H66.94V62.65h1.91v6.17A4.89,4.89,0,0,1,73.16,66.49Zm-.4,1.66a4.29,4.29,0,0,0,0,8.55c2.12,0,3.9-1.6,3.9-4.31A3.88,3.88,0,0,0,72.76,68.15Z"/><path class="cls-3" d="M80.82,63.51a1.28,1.28,0,0,1,1.3-1.3,1.3,1.3,0,0,1,0,2.6A1.28,1.28,0,0,1,80.82,63.51Zm.32,3.17h1.91V78.19H81.14Z"/><path class="cls-3" d="M91.2,66.49c2.85,0,4.72,1.47,5.31,3.89H94.45a3.13,3.13,0,0,0-3.25-2.27c-2.1,0-3.66,1.49-3.66,4.3s1.56,4.35,3.66,4.35a3.08,3.08,0,0,0,3.25-2.27h2.06a5.12,5.12,0,0,1-5.31,3.89c-3.28,0-5.61-2.31-5.61-6S87.92,66.49,91.2,66.49Z"/><path class="cls-3" d="M103.8,66.49a4.76,4.76,0,0,1,4.28,2.29v-2.1H110V78.19h-1.93V76a4.8,4.8,0,0,1-4.31,2.34c-3.06,0-5.43-2.42-5.43-6S100.71,66.49,103.8,66.49Zm.37,1.66c-2.1,0-3.88,1.53-3.88,4.24s1.78,4.31,3.88,4.31a4.29,4.29,0,0,0,0-8.55Z"/></svg>