<svg id="Capa_1" data-name="Capa 1" xmlns="http://www.w3.org/2000/svg" viewBox="0 0 511.24 114.39"><defs><style>.cls-1{fill:#bcbcbb;stroke-dasharray:4 4 8 8;opacity:0.14;}.cls-1,.cls-3,.cls-4,.cls-5,.cls-6,.cls-7{stroke:#1d1d1b;stroke-miterlimit:10;}.cls-2{fill:#1d1d1b;}.cls-3,.cls-4,.cls-5,.cls-6,.cls-7{fill:none;}.cls-4{stroke-dasharray:8.1 8.1;}.cls-5{stroke-dasharray:4.05 4.05 8.1 8.1;}.cls-6{stroke-dasharray:7.54 7.54;}.cls-7{stroke-dasharray:3.77 3.77 7.54 7.54;}</style></defs><rect class="cls-1" x="0.5" y="0.5" width="510.24" height="113.39" rx="9.31"/><path class="cls-2" d="M23.77,30a8.54,8.54,0,0,1,8.4,5.48H29.33a5.7,5.7,0,0,0-5.56-3.4c-3.8,0-6.63,2.75-6.63,7.2s2.83,7.18,6.63,7.18a5.73,5.73,0,0,0,5.56-3.38h2.84a8.54,8.54,0,0,1-8.4,5.43,8.89,8.89,0,0,1-9-9.23A8.94,8.94,0,0,1,23.77,30Z"/><path class="cls-2" d="M41.55,33.89a5.94,5.94,0,0,1,5.31,2.84v-2.6h2.39V48.38H46.86V45.72a6,6,0,0,1-5.33,2.89c-3.8,0-6.74-3-6.74-7.41S37.73,33.89,41.55,33.89ZM42,36c-2.6,0-4.81,1.89-4.81,5.25s2.21,5.33,4.81,5.33,4.84-2,4.84-5.31S44.62,36,42,36Z"/><path class="cls-2" d="M61,33.89c3.82,0,6.76,2.86,6.76,7.31S64.77,48.61,61,48.61a6.15,6.15,0,0,1-5.33-2.86v9.39H53.25v-21h2.37v2.62A6,6,0,0,1,61,33.89ZM60.45,36c-2.57,0-4.83,2-4.83,5.27s2.26,5.31,4.83,5.31,4.84-2,4.84-5.33S63.08,36,60.45,36Z"/><path class="cls-2" d="M76.7,33.89A5.94,5.94,0,0,1,82,36.73v-2.6H84.4V48.38H82V45.72a6,6,0,0,1-5.33,2.89c-3.8,0-6.74-3-6.74-7.41S72.88,33.89,76.7,33.89ZM77.17,36c-2.6,0-4.81,1.89-4.81,5.25s2.21,5.33,4.81,5.33,4.84-2,4.84-5.31S79.77,36,77.17,36Z"/><path class="cls-2" d="M94.46,33.89c3.54,0,5.85,1.82,6.58,4.81H98.49a3.88,3.88,0,0,0-4-2.81c-2.6,0-4.52,1.85-4.52,5.33s1.92,5.39,4.52,5.39a3.82,3.82,0,0,0,4-2.81H101a6.34,6.34,0,0,1-6.58,4.81c-4.06,0-6.94-2.86-6.94-7.39S90.4,33.89,94.46,33.89Z"/><path class="cls-2" d="M103.79,30.2a1.59,1.59,0,1,1,1.62,1.61A1.59,1.59,0,0,1,103.79,30.2Zm.39,3.93h2.37V48.38h-2.37Z"/><path class="cls-2" d="M116.48,33.89a6.23,6.23,0,0,1,5.28,2.78V29.13h2.39V48.38h-2.39V45.7a5.86,5.86,0,0,1-5.3,2.91c-3.83,0-6.76-3-6.76-7.41S112.63,33.89,116.48,33.89Zm.44,2.06c-2.6,0-4.81,1.89-4.81,5.25s2.21,5.33,4.81,5.33,4.84-2,4.84-5.31S119.52,36,116.92,36Z"/><path class="cls-2" d="M134,33.89a5.94,5.94,0,0,1,5.31,2.84v-2.6h2.39V48.38h-2.39V45.72A6,6,0,0,1,134,48.61c-3.8,0-6.74-3-6.74-7.41S130.21,33.89,134,33.89ZM134.5,36c-2.6,0-4.81,1.89-4.81,5.25s2.21,5.33,4.81,5.33,4.84-2,4.84-5.31S137.1,36,134.5,36Z"/><path class="cls-2" d="M151.63,33.89a6.23,6.23,0,0,1,5.28,2.78V29.13h2.39V48.38h-2.39V45.7a5.86,5.86,0,0,1-5.3,2.91c-3.82,0-6.76-3-6.76-7.41S147.79,33.89,151.63,33.89Zm.45,2.06c-2.61,0-4.82,1.89-4.82,5.25s2.21,5.33,4.82,5.33,4.83-2,4.83-5.31S154.67,36,152.08,36Z"/><path class="cls-2" d="M41.51,75.54h-7.9l-1.46,4H29.66l6.55-18h2.73l6.52,18H43ZM37.56,64.47l-3.28,9.15h6.56Z"/><path class="cls-2" d="M54.49,79.81c-4.06,0-7.05-2.86-7.05-7.39s2.89-7.33,7.05-7.33a6.53,6.53,0,0,1,6.83,6.82,13.24,13.24,0,0,1-.07,1.42H49.86a4.48,4.48,0,0,0,4.63,4.48,3.92,3.92,0,0,0,4-2.63H61A6.41,6.41,0,0,1,54.49,79.81Zm-4.61-8.4h9a4.18,4.18,0,0,0-4.5-4.32A4.42,4.42,0,0,0,49.88,71.41Z"/><path class="cls-2" d="M66.81,79.58H64.44V65.33h2.37v2.31a4.79,4.79,0,0,1,4.6-2.57v2.44h-.62c-2.26,0-4,1-4,4.32Z"/><path class="cls-2" d="M80.36,79.81c-4,0-7.1-2.86-7.1-7.39a7.2,7.2,0,1,1,14.4,0A7.06,7.06,0,0,1,80.36,79.81Zm0-2.08c2.47,0,4.88-1.69,4.88-5.31s-2.36-5.27-4.81-5.27-4.75,1.69-4.75,5.27S77.89,77.73,80.36,77.73ZM83,59.06v2l-5.54,3V62.31Z"/><path class="cls-2" d="M98.48,65.09c3.85,0,6.76,2.86,6.76,7.31s-2.94,7.41-6.76,7.41A5.94,5.94,0,0,1,93.15,77v2.63H90.78V60.33h2.37V68A6,6,0,0,1,98.48,65.09ZM98,67.15c-2.57,0-4.83,2-4.83,5.27s2.26,5.31,4.83,5.31,4.84-2,4.84-5.33S100.61,67.15,98,67.15Z"/><path class="cls-2" d="M108,61.4A1.59,1.59,0,1,1,109.58,63,1.58,1.58,0,0,1,108,61.4Zm.39,3.93h2.36V79.58h-2.36Z"/><path class="cls-2" d="M120.81,65.09c3.54,0,5.85,1.82,6.58,4.81h-2.55a3.88,3.88,0,0,0-4-2.81c-2.6,0-4.52,1.85-4.52,5.33s1.92,5.39,4.52,5.39a3.82,3.82,0,0,0,4-2.81h2.55a6.34,6.34,0,0,1-6.58,4.81c-4,0-6.94-2.86-6.94-7.39S116.76,65.09,120.81,65.09Z"/><path class="cls-2" d="M136.41,65.09a5.94,5.94,0,0,1,5.31,2.84v-2.6h2.39V79.58h-2.39V76.92a6,6,0,0,1-5.33,2.89c-3.8,0-6.74-3-6.74-7.41S132.59,65.09,136.41,65.09Zm.47,2.06c-2.6,0-4.81,1.89-4.81,5.25s2.21,5.33,4.81,5.33,4.84-2,4.84-5.31S139.48,67.15,136.88,67.15Z"/><line class="cls-3" x1="510" y1="56.11" x2="508" y2="56.11"/><line class="cls-4" x1="503.95" y1="56.11" x2="491.8" y2="56.11"/><line class="cls-5" x1="487.75" y1="56.11" x2="175.9" y2="56.11"/><line class="cls-3" x1="171.85" y1="56.11" x2="169.85" y2="56.11"/><line class="cls-3" x1="169.85" y1="-0.58" x2="169.85" y2="1.42"/><line class="cls-6" x1="169.85" y1="5.19" x2="169.85" y2="16.51"/><line class="cls-7" x1="169.85" y1="20.28" x2="169.85" y2="107.03"/><line class="cls-3" x1="169.85" y1="110.8" x2="169.85" y2="112.8"/><line class="cls-3" x1="339.92" y1="-0.58" x2="339.92" y2="1.42"/><line class="cls-6" x1="339.92" y1="5.19" x2="339.92" y2="16.51"/><line class="cls-7" x1="339.92" y1="20.28" x2="339.92" y2="107.03"/><line class="cls-3" x1="339.92" y1="110.8" x2="339.92" y2="112.8"/><path class="cls-2" d="M226,15.89h1.82l-5,13.25h-2l-5-13.25h1.84l4.16,11.42Z"/><path class="cls-2" d="M235.76,29.27a6.53,6.53,0,0,1-6.65-6.76,6.65,6.65,0,1,1,13.3,0A6.52,6.52,0,0,1,235.76,29.27Zm0-1.5c2.79,0,4.88-2,4.88-5.26s-2.09-5.27-4.88-5.27-4.89,2-4.89,5.27S233,27.77,235.76,27.77Z"/><path class="cls-2" d="M243.79,28.33c2.09-1.68,4.07-3.26,4.07-4.89a1.35,1.35,0,0,0-1.47-1.54,1.56,1.56,0,0,0-1.6,1.71h-1A2.44,2.44,0,0,1,246.38,21a2.24,2.24,0,0,1,2.47,2.35c0,2-2.14,3.67-3.56,4.82h3.79v.84h-5.29Z"/><path class="cls-2" d="M254,16h1.86l4.86,10.87L265.54,16h1.84V29.14h-1.73V19.33l-4.37,9.81h-1.21l-4.39-9.83v9.83H254Z"/><path class="cls-2" d="M274.6,18.55a4.32,4.32,0,0,1,3.88,2.08v-1.9h1.75V29.14h-1.75V27.2a4.36,4.36,0,0,1-3.9,2.11c-2.77,0-4.92-2.19-4.92-5.42S271.81,18.55,274.6,18.55Zm.34,1.51a3.51,3.51,0,0,0-3.51,3.83,3.54,3.54,0,1,0,7.05,0A3.57,3.57,0,0,0,274.94,20.06Z"/><path class="cls-2" d="M286.12,25.26l-2.38,3.88h-1.8L285.3,24l-3.36-5.24h1.95l2.47,3.85,2.36-3.85h1.8l-3.34,5.14,3.36,5.27h-2Z"/><path d="M402.7,20.05h1.86l4.86,10.87,4.87-10.87h1.84V33.2H414.4V23.4L410,33.2h-1.21l-4.39-9.82V33.2H402.7Z"/><path d="M426.18,21.36h-5.39v4.43h4.82v1.42h-4.82v4.56h5.39V33.2h-7.12V19.94h7.12Z"/><path d="M428,20h9v1.4h-3.61V33.2h-1.72V21.36H428Z"/><path d="M442,33.34c-2,0-3.49-1.12-3.59-2.72h1.51c.08.85.83,1.49,2.06,1.49s1.79-.58,1.79-1.3c0-1.95-5.18-.81-5.18-4.08,0-1.34,1.26-2.45,3.22-2.45s3.21,1,3.31,2.76h-1.46a1.68,1.68,0,0,0-1.9-1.52c-1.07,0-1.72.51-1.72,1.21,0,2.08,5.1.95,5.16,4.08C445.16,32.25,443.89,33.34,442,33.34Z"/></svg>