<svg id="Capa_1" data-name="Capa 1" xmlns="http://www.w3.org/2000/svg" viewBox="0 0 516.88 113.39"><defs><style>.cls-1{fill:none;}.cls-1,.cls-2{stroke:#1d1d1b;stroke-miterlimit:10;stroke-width:0.25px;}.cls-2{fill:#74c6c7;}.cls-3{fill:#1d1d1b;}</style></defs><rect class="cls-1" x="2.94" y="2.81" width="510.24" height="109.94" rx="9.31"/><rect class="cls-2" x="2.77" y="2.81" width="127.68" height="109.94" rx="9.31"/><path class="cls-3" d="M12.57,48.34c4.26,0,6.29,2.36,6.29,5.33a5.11,5.11,0,0,1-4.32,5.2l4.55,7.59H16.26l-4.32-7.41H9.08v7.41H6.72V48.34Zm0,1.95H9.08v6.86h3.49c2.68,0,3.85-1.46,3.85-3.48S15.27,50.29,12.57,50.29Z"/><path class="cls-3" d="M28.69,66.69c-4.06,0-7-2.86-7-7.38S24.53,52,28.69,52a6.53,6.53,0,0,1,6.84,6.81,13.41,13.41,0,0,1-.08,1.43H24.06a4.48,4.48,0,0,0,4.63,4.47,3.91,3.91,0,0,0,4-2.63h2.55A6.41,6.41,0,0,1,28.69,66.69Zm-4.61-8.4h9A4.17,4.17,0,0,0,28.58,54,4.42,4.42,0,0,0,24.08,58.29Z"/><path class="cls-3" d="M44.7,52c3.54,0,5.85,1.82,6.58,4.81H48.73a3.87,3.87,0,0,0-4-2.81c-2.6,0-4.52,1.84-4.52,5.33s1.92,5.38,4.52,5.38a3.81,3.81,0,0,0,4-2.81h2.55a6.33,6.33,0,0,1-6.58,4.81c-4.05,0-6.94-2.86-6.94-7.38S40.65,52,44.7,52Z"/><path class="cls-3" d="M60.64,66.69c-4,0-7.1-2.86-7.1-7.38a7.21,7.21,0,1,1,14.41,0A7.06,7.06,0,0,1,60.64,66.69Zm0-2.08c2.47,0,4.89-1.69,4.89-5.3S63.16,54,60.72,54,56,55.72,56,59.31,58.17,64.61,60.64,64.61Z"/><path class="cls-3" d="M73.43,66.46H71.07V52.21h2.36v2.31A4.81,4.81,0,0,1,78,52v2.44h-.63c-2.26,0-4,1-4,4.32Z"/><path class="cls-3" d="M83.13,66.46H80.76V52.21h2.37v2.31A4.81,4.81,0,0,1,87.73,52v2.44h-.62c-2.26,0-4,1-4,4.32Z"/><path class="cls-3" d="M90.07,48.28a1.59,1.59,0,1,1,1.61,1.62A1.58,1.58,0,0,1,90.07,48.28Zm.39,3.93h2.37V66.46H90.46Z"/><path class="cls-3" d="M102.76,52A6.21,6.21,0,0,1,108,54.76V47.22h2.39V66.46H108V63.78a5.85,5.85,0,0,1-5.3,2.91c-3.83,0-6.77-3-6.77-7.41S98.91,52,102.76,52ZM103.2,54c-2.6,0-4.81,1.9-4.81,5.25s2.21,5.33,4.81,5.33,4.84-2,4.84-5.3S105.8,54,103.2,54Z"/><path class="cls-3" d="M120.65,66.69c-4,0-7.1-2.86-7.1-7.38a7.2,7.2,0,1,1,14.4,0A7.06,7.06,0,0,1,120.65,66.69Zm0-2.08c2.47,0,4.89-1.69,4.89-5.3S123.17,54,120.73,54,116,55.72,116,59.31,118.18,64.61,120.65,64.61Z"/><path class="cls-3" d="M215.35,11.44h7.49v1.41h-5.76v4.46h4.67v1.41h-4.67v6h-1.73Z"/><path class="cls-3" d="M229.47,24.85a5.05,5.05,0,0,1-5.19-5.39,5.27,5.27,0,1,1,10.53,0A5.16,5.16,0,0,1,229.47,24.85Zm0-1.52A3.53,3.53,0,0,0,233,19.46a3.5,3.5,0,0,0-3.52-3.86c-1.82,0-3.47,1.24-3.47,3.86S227.66,23.33,229.47,23.33Zm1.94-13.64v1.5l-4,2.17V12.07Z"/><path class="cls-3" d="M238.82,24.68h-1.73V14.27h1.73V16a3.49,3.49,0,0,1,3.36-1.88v1.79h-.46c-1.65,0-2.9.74-2.9,3.15Z"/><path class="cls-3" d="M259.2,18.79c0-2.12-1.14-3.21-2.85-3.21s-2.94,1.12-2.94,3.36v5.74H251.7V18.79c0-2.12-1.14-3.21-2.85-3.21s-2.95,1.12-2.95,3.36v5.74h-1.73V14.27h1.73v1.5a3.78,3.78,0,0,1,3.29-1.69A3.92,3.92,0,0,1,253,16.4a3.86,3.86,0,0,1,3.68-2.32c2.38,0,4.22,1.48,4.22,4.47v6.13H259.2Z"/><path class="cls-3" d="M273,24.68h-1.73V23.14a3.82,3.82,0,0,1-3.33,1.69c-2.39,0-4.27-1.48-4.27-4.46v-6.1h1.71v5.87c0,2.11,1.16,3.19,2.9,3.19s3-1.1,3-3.34V14.27H273Z"/><path class="cls-3" d="M275.9,10.62h1.73V24.68H275.9Z"/><path class="cls-3" d="M284.87,14.1a4.33,4.33,0,0,1,3.88,2.07v-1.9h1.74V24.68h-1.74V22.74a4.34,4.34,0,0,1-3.9,2.11c-2.77,0-4.92-2.18-4.92-5.41S282.08,14.1,284.87,14.1Zm.34,1.5a3.51,3.51,0,0,0-3.51,3.84,3.54,3.54,0,1,0,7.05,0A3.58,3.58,0,0,0,285.21,15.6Z"/><path d="M359.33,23.12A2.65,2.65,0,0,1,362.1,26a2.78,2.78,0,1,1-5.55,0A2.66,2.66,0,0,1,359.33,23.12ZM357.94,26c0,1.18.55,1.79,1.39,1.79s1.4-.61,1.4-1.79-.57-1.77-1.4-1.77S357.94,24.75,357.94,26Zm8-2.62h1.71L360,36.59h-1.7Zm.66,7.79A2.65,2.65,0,0,1,369.36,34a2.77,2.77,0,1,1-5.53,0A2.65,2.65,0,0,1,366.6,31.12ZM365.18,34c0,1.17.57,1.74,1.41,1.74S368,35.14,368,34s-.57-1.77-1.4-1.77S365.18,32.77,365.18,34Z"/><path d="M381,26a4.52,4.52,0,0,1,3.85,2V22.53h1.75V36.59h-1.75v-2A4.26,4.26,0,0,1,381,36.76c-2.8,0-4.94-2.18-4.94-5.41S378.21,26,381,26Zm.32,1.5a3.52,3.52,0,0,0-3.52,3.84,3.54,3.54,0,1,0,7.05,0A3.56,3.56,0,0,0,381.35,27.51Z"/><path d="M394.06,36.76a5,5,0,0,1-5.15-5.4c0-3.28,2.11-5.35,5.15-5.35a4.77,4.77,0,0,1,5,5A9,9,0,0,1,399,32h-8.32a3.27,3.27,0,0,0,3.38,3.27A2.87,2.87,0,0,0,397,33.38h1.86A4.68,4.68,0,0,1,394.06,36.76Zm-3.36-6.14h6.57A3.05,3.05,0,0,0,394,27.47,3.22,3.22,0,0,0,390.7,30.62Z"/><path d="M417.56,30c0,4.1-2.68,6.59-7,6.59h-4.12V23.35h4.12C414.88,23.35,417.56,25.89,417.56,30Zm-7,5.16c3.46,0,5.26-1.93,5.26-5.16s-1.8-5.25-5.26-5.25h-2.39V35.16Z"/><path d="M419.56,23.31a1.16,1.16,0,1,1,1.18,1.18A1.16,1.16,0,0,1,419.56,23.31Zm.28,2.87h1.73V36.59h-1.73Z"/><path d="M428.2,36.76c-2.43,0-4.14-1.33-4.25-3.23h1.78c.1,1,1,1.77,2.45,1.77s2.13-.69,2.13-1.54c0-2.32-6.15-1-6.15-4.85,0-1.59,1.5-2.9,3.81-2.9s3.82,1.23,3.94,3.26h-1.73a2,2,0,0,0-2.26-1.8c-1.28,0-2,.61-2,1.44,0,2.47,6.05,1.12,6.12,4.85C432,35.47,430.5,36.76,428.2,36.76Z"/><path d="M434.81,27.6h-1.34V26.18h1.34V23.56h1.73v2.62h2.72V27.6h-2.72v6.14c0,1,.38,1.39,1.45,1.39h1.27v1.46H437.7c-1.84,0-2.89-.76-2.89-2.85Z"/><path d="M445.64,26a4.33,4.33,0,0,1,3.88,2.07v-1.9h1.75V36.59h-1.75V34.65a4.36,4.36,0,0,1-3.9,2.11c-2.77,0-4.92-2.18-4.92-5.41S442.85,26,445.64,26Zm.35,1.5a3.52,3.52,0,0,0-3.52,3.84,3.54,3.54,0,1,0,7,0A3.56,3.56,0,0,0,446,27.51Z"/><path d="M461.81,30.7c0-2.13-1.16-3.21-2.9-3.21s-3,1.1-3,3.34v5.76h-1.73V26.18h1.73v1.48A3.86,3.86,0,0,1,459.27,26c2.41,0,4.25,1.48,4.25,4.46v6.14h-1.71Z"/><path d="M470.78,26a4.54,4.54,0,0,1,4.81,3.51h-1.86a2.85,2.85,0,0,0-3-2.05c-1.9,0-3.3,1.35-3.3,3.89s1.4,3.94,3.3,3.94a2.8,2.8,0,0,0,3-2h1.86a4.64,4.64,0,0,1-4.81,3.51c-3,0-5.07-2.09-5.07-5.4S467.82,26,470.78,26Z"/><path d="M477.6,23.31a1.16,1.16,0,0,1,1.18-1.18,1.18,1.18,0,0,1,0,2.36A1.17,1.17,0,0,1,477.6,23.31Zm.29,2.87h1.73V36.59h-1.73Z"/><path d="M486.85,26a4.33,4.33,0,0,1,3.88,2.07v-1.9h1.75V36.59h-1.75V34.65a4.36,4.36,0,0,1-3.9,2.11c-2.77,0-4.92-2.18-4.92-5.41S484.06,26,486.85,26Zm.35,1.5a3.52,3.52,0,0,0-3.52,3.84,3.54,3.54,0,1,0,7.05,0A3.56,3.56,0,0,0,487.2,27.51Z"/></svg>