<svg id="Capa_1" data-name="Capa 1" xmlns="http://www.w3.org/2000/svg" viewBox="0 0 510.24 113.39"><defs><style>.cls-1{fill:#bcbcbb;stroke-dasharray:4 4 8 8;opacity:0.14;}.cls-1,.cls-3,.cls-4,.cls-5,.cls-6,.cls-7{stroke:#1d1d1b;stroke-miterlimit:10;}.cls-2{fill:#1d1d1b;}.cls-3,.cls-4,.cls-5,.cls-6,.cls-7{fill:none;}.cls-4{stroke-dasharray:8.1 8.1;}.cls-5{stroke-dasharray:4.05 4.05 8.1 8.1;}.cls-6{stroke-dasharray:7.54 7.54;}.cls-7{stroke-dasharray:3.77 3.77 7.54 7.54;}</style></defs><rect class="cls-1" x="0.73" y="1.08" width="510.24" height="113.39" rx="9.31"/><path class="cls-2" d="M33.36,45.53c4.26,0,6.29,2.36,6.29,5.33a5.11,5.11,0,0,1-4.31,5.2l4.55,7.59H37.05l-4.31-7.41H29.88v7.41H27.51V45.53Zm0,1.95H29.88v6.86h3.48c2.68,0,3.85-1.45,3.85-3.48S36.06,47.48,33.36,47.48Z"/><path class="cls-2" d="M49.48,63.88c-4.06,0-7-2.86-7-7.38s2.89-7.33,7-7.33A6.53,6.53,0,0,1,56.32,56a13.26,13.26,0,0,1-.08,1.43H44.85a4.47,4.47,0,0,0,4.63,4.47,3.91,3.91,0,0,0,4-2.62H56A6.4,6.4,0,0,1,49.48,63.88Zm-4.6-8.39h9a4.17,4.17,0,0,0-4.49-4.32A4.41,4.41,0,0,0,44.88,55.49Z"/><path class="cls-2" d="M65.5,49.17C69,49.17,71.35,51,72.07,54H69.53a3.89,3.89,0,0,0-4-2.81C62.9,51.17,61,53,61,56.5s1.93,5.38,4.53,5.38a3.82,3.82,0,0,0,4-2.81h2.54a6.32,6.32,0,0,1-6.57,4.81c-4.06,0-7-2.86-7-7.38S61.44,49.17,65.5,49.17Z"/><path class="cls-2" d="M81.43,63.88c-4,0-7.09-2.86-7.09-7.38a7.2,7.2,0,1,1,14.4,0A7.06,7.06,0,0,1,81.43,63.88Zm0-2.08c2.47,0,4.89-1.69,4.89-5.3S84,51.22,81.51,51.22s-4.76,1.69-4.76,5.28S79,61.8,81.43,61.8Z"/><path class="cls-2" d="M94.23,63.65H91.86V49.4h2.37v2.32a4.79,4.79,0,0,1,4.6-2.58v2.45H98.2c-2.26,0-4,1-4,4.31Z"/><path class="cls-2" d="M103.92,63.65h-2.36V49.4h2.36v2.32a4.8,4.8,0,0,1,4.6-2.58v2.45h-.62c-2.26,0-4,1-4,4.31Z"/><path class="cls-2" d="M110.86,45.48a1.6,1.6,0,0,1,1.62-1.62,1.62,1.62,0,1,1-1.62,1.62Zm.4,3.92h2.36V63.65h-2.36Z"/><path class="cls-2" d="M123.55,49.17A6.21,6.21,0,0,1,128.83,52V44.41h2.39V63.65h-2.39V61a5.84,5.84,0,0,1-5.3,2.91c-3.83,0-6.76-3-6.76-7.41S119.7,49.17,123.55,49.17Zm.44,2c-2.6,0-4.81,1.9-4.81,5.25s2.21,5.33,4.81,5.33,4.84-1.95,4.84-5.3S126.59,51.22,124,51.22Z"/><path class="cls-2" d="M141.44,63.88c-4,0-7.1-2.86-7.1-7.38a7.21,7.21,0,1,1,14.41,0A7.06,7.06,0,0,1,141.44,63.88Zm0-2.08c2.47,0,4.89-1.69,4.89-5.3s-2.37-5.28-4.81-5.28-4.76,1.69-4.76,5.28S139,61.8,141.44,61.8Z"/><line class="cls-3" x1="510.24" y1="56.69" x2="508.24" y2="56.69"/><line class="cls-4" x1="504.19" y1="56.69" x2="492.04" y2="56.69"/><line class="cls-5" x1="487.99" y1="56.69" x2="176.13" y2="56.69"/><line class="cls-3" x1="172.08" y1="56.69" x2="170.08" y2="56.69"/><line class="cls-3" x1="170.08" x2="170.08" y2="2"/><line class="cls-6" x1="170.08" y1="5.77" x2="170.08" y2="17.09"/><line class="cls-7" x1="170.08" y1="20.86" x2="170.08" y2="107.61"/><line class="cls-3" x1="170.08" y1="111.39" x2="170.08" y2="113.39"/><line class="cls-3" x1="340.16" x2="340.16" y2="2"/><line class="cls-6" x1="340.16" y1="5.77" x2="340.16" y2="17.09"/><line class="cls-7" x1="340.16" y1="20.86" x2="340.16" y2="107.61"/><line class="cls-3" x1="340.16" y1="111.39" x2="340.16" y2="113.39"/><path class="cls-2" d="M217.14,8.63h7.49V10h-5.76V14.5h4.68v1.41h-4.68v6h-1.73Z"/><path class="cls-2" d="M231.26,22.05a5.06,5.06,0,0,1-5.19-5.4,5.27,5.27,0,1,1,10.53,0A5.17,5.17,0,0,1,231.26,22.05Zm0-1.52a3.54,3.54,0,0,0,3.57-3.88,3.5,3.5,0,0,0-3.51-3.86c-1.83,0-3.48,1.24-3.48,3.86S229.45,20.53,231.26,20.53ZM233.2,6.89v1.5l-4,2.16V9.26Z"/><path class="cls-2" d="M240.61,21.87h-1.73V11.46h1.73v1.69A3.52,3.52,0,0,1,244,11.27v1.79h-.46c-1.65,0-2.9.74-2.9,3.15Z"/><path class="cls-2" d="M261,16c0-2.13-1.14-3.22-2.85-3.22s-2.94,1.13-2.94,3.37v5.73h-1.71V16c0-2.13-1.14-3.22-2.85-3.22s-2.95,1.13-2.95,3.37v5.73H246V11.46h1.72V13A3.78,3.78,0,0,1,251,11.27a3.91,3.91,0,0,1,3.82,2.32,3.86,3.86,0,0,1,3.68-2.32c2.38,0,4.22,1.49,4.22,4.47v6.13H261Z"/><path class="cls-2" d="M274.77,21.87H273V20.34A3.84,3.84,0,0,1,269.72,22c-2.4,0-4.28-1.49-4.28-4.47v-6.1h1.71v5.87c0,2.11,1.16,3.2,2.91,3.2s3-1.11,3-3.35V11.46h1.73Z"/><path class="cls-2" d="M277.7,7.82h1.72V21.87H277.7Z"/><path class="cls-2" d="M286.66,11.29a4.33,4.33,0,0,1,3.88,2.07v-1.9h1.75V21.87h-1.75V19.94a4.36,4.36,0,0,1-3.9,2.11c-2.77,0-4.92-2.19-4.92-5.42S283.87,11.29,286.66,11.29Zm.35,1.5a3.52,3.52,0,0,0-3.52,3.84,3.54,3.54,0,1,0,7.05,0A3.57,3.57,0,0,0,287,12.79Z"/><path class="cls-2" d="M361.12,20.31a2.65,2.65,0,0,1,2.77,2.83,2.77,2.77,0,1,1-5.54,0A2.66,2.66,0,0,1,361.12,20.31Zm-1.39,2.83c0,1.18.55,1.79,1.39,1.79s1.41-.61,1.41-1.79-.57-1.76-1.41-1.76S359.73,22,359.73,23.14Zm8-2.62h1.71l-7.69,13.26H360Zm.67,7.79a2.65,2.65,0,0,1,2.75,2.85,2.77,2.77,0,1,1-5.53,0A2.65,2.65,0,0,1,368.4,28.31ZM367,31.16c0,1.18.57,1.75,1.41,1.75s1.4-.57,1.4-1.75-.57-1.77-1.4-1.77S367,30,367,31.16Z"/><path class="cls-2" d="M382.82,23.2a4.54,4.54,0,0,1,3.85,2V19.72h1.75V33.78h-1.75v-2A4.26,4.26,0,0,1,382.8,34c-2.79,0-4.94-2.18-4.94-5.41S380,23.2,382.82,23.2Zm.32,1.5a3.51,3.51,0,0,0-3.51,3.84,3.54,3.54,0,1,0,7,0A3.56,3.56,0,0,0,383.14,24.7Z"/><path class="cls-2" d="M395.85,34a5,5,0,0,1-5.15-5.39c0-3.29,2.11-5.36,5.15-5.36a4.78,4.78,0,0,1,5,5,8.81,8.81,0,0,1-.06,1h-8.32a3.27,3.27,0,0,0,3.38,3.27,2.87,2.87,0,0,0,2.93-1.92h1.86A4.68,4.68,0,0,1,395.85,34Zm-3.36-6.13h6.57a3.05,3.05,0,0,0-3.28-3.16A3.22,3.22,0,0,0,392.49,27.82Z"/><path class="cls-2" d="M419.35,27.19c0,4.1-2.68,6.59-7,6.59H408.2V20.54h4.12C416.67,20.54,419.35,23.09,419.35,27.19Zm-7,5.17c3.46,0,5.27-1.94,5.27-5.17S415.78,22,412.32,22h-2.39V32.36Z"/><path class="cls-2" d="M421.35,20.5a1.16,1.16,0,1,1,1.18,1.18A1.16,1.16,0,0,1,421.35,20.5Zm.28,2.87h1.73V33.78h-1.73Z"/><path class="cls-2" d="M430,34c-2.43,0-4.14-1.33-4.25-3.23h1.78c.1,1,1,1.77,2.45,1.77s2.13-.68,2.13-1.54c0-2.32-6.15-1-6.15-4.84,0-1.6,1.5-2.91,3.82-2.91s3.81,1.23,3.93,3.27H432a2,2,0,0,0-2.26-1.81c-1.27,0-2,.61-2,1.45,0,2.47,6,1.12,6.11,4.84C433.79,32.66,432.29,34,430,34Z"/><path class="cls-2" d="M436.61,24.8h-1.35V23.37h1.35V20.75h1.73v2.62h2.71V24.8h-2.71v6.13c0,1,.38,1.39,1.44,1.39h1.27v1.46h-1.56c-1.84,0-2.88-.76-2.88-2.85Z"/><path class="cls-2" d="M447.44,23.2a4.33,4.33,0,0,1,3.87,2.07v-1.9h1.75V33.78h-1.75V31.84A4.34,4.34,0,0,1,447.42,34c-2.78,0-4.92-2.18-4.92-5.41S444.64,23.2,447.44,23.2Zm.34,1.5a3.52,3.52,0,0,0-3.52,3.84,3.54,3.54,0,1,0,7.05,0A3.56,3.56,0,0,0,447.78,24.7Z"/><path class="cls-2" d="M463.6,27.89c0-2.13-1.15-3.21-2.9-3.21s-3,1.1-3,3.34v5.76H456V23.37h1.73v1.48a3.84,3.84,0,0,1,3.34-1.67c2.41,0,4.25,1.48,4.25,4.46v6.14H463.6Z"/><path class="cls-2" d="M472.57,23.2a4.52,4.52,0,0,1,4.81,3.51h-1.86a2.84,2.84,0,0,0-2.95-2.05c-1.9,0-3.3,1.35-3.3,3.9s1.4,3.93,3.3,3.93a2.8,2.8,0,0,0,2.95-2.05h1.86A4.63,4.63,0,0,1,472.57,34c-3,0-5.07-2.09-5.07-5.39S469.61,23.2,472.57,23.2Z"/><path class="cls-2" d="M479.39,20.5a1.17,1.17,0,0,1,1.18-1.18,1.18,1.18,0,1,1-1.18,1.18Zm.29,2.87h1.73V33.78h-1.73Z"/><path class="cls-2" d="M488.65,23.2a4.33,4.33,0,0,1,3.87,2.07v-1.9h1.75V33.78h-1.75V31.84A4.34,4.34,0,0,1,488.63,34c-2.78,0-4.92-2.18-4.92-5.41S485.85,23.2,488.65,23.2Zm.34,1.5a3.52,3.52,0,0,0-3.52,3.84,3.54,3.54,0,1,0,7,0A3.56,3.56,0,0,0,489,24.7Z"/></svg>