<svg id="Capa_1" data-name="Capa 1" xmlns="http://www.w3.org/2000/svg" viewBox="0 0 511.45 77.42"><defs><style>.cls-1{fill:#eaf2e3;}.cls-2{fill:none;stroke:#1d1d1b;stroke-miterlimit:10;stroke-width:0.25px;}.cls-3{fill:#1d1d1b;}</style></defs><rect class="cls-1" x="1.95" y="3.22" width="508.64" height="74.2" rx="9.31"/><rect class="cls-2" x="0.61" y="3.22" width="510.24" height="74.2" rx="9.31"/><path class="cls-3" d="M201.43,30.72c3.61,0,5.33,2,5.33,4.51a4.32,4.32,0,0,1-3.66,4.4L207,46.06h-2.39l-3.66-6.27h-2.42v6.27h-2V30.72Zm0,1.65h-3v5.81h3c2.27,0,3.26-1.23,3.26-3S203.72,32.37,201.43,32.37Z"/><path class="cls-3" d="M215.07,46.26c-3.43,0-6-2.42-6-6.25s2.44-6.21,6-6.21a5.53,5.53,0,0,1,5.79,5.77,11.92,11.92,0,0,1-.07,1.21h-9.64a3.79,3.79,0,0,0,3.92,3.78,3.32,3.32,0,0,0,3.39-2.22h2.16A5.44,5.44,0,0,1,215.07,46.26Zm-3.89-7.11h7.61A3.54,3.54,0,0,0,215,35.5,3.73,3.73,0,0,0,211.18,39.15Z"/><path class="cls-3" d="M227.76,46.26c-2.81,0-4.79-1.54-4.93-3.74h2.07c.11,1.16,1.15,2,2.84,2s2.47-.79,2.47-1.78c0-2.68-7.13-1.12-7.13-5.61,0-1.85,1.74-3.37,4.42-3.37s4.42,1.43,4.55,3.79h-2a2.32,2.32,0,0,0-2.62-2.09c-1.47,0-2.35.7-2.35,1.67,0,2.86,7,1.3,7.08,5.61C232.16,44.76,230.43,46.26,227.76,46.26Z"/><path class="cls-3" d="M245.67,46.06h-2V44.28a4.44,4.44,0,0,1-3.85,2c-2.77,0-4.95-1.72-4.95-5.18V34h2v6.8c0,2.44,1.34,3.7,3.37,3.7s3.45-1.28,3.45-3.88V34h2Z"/><path class="cls-3" d="M249.06,29.78h2V46.06h-2Z"/><path class="cls-3" d="M254.91,35.65h-1.56V34h1.56V31h2v3h3.15v1.65h-3.15v7.11c0,1.19.44,1.61,1.67,1.61h1.48v1.69h-1.8c-2.14,0-3.35-.88-3.35-3.3Z"/><path class="cls-3" d="M267.45,33.8a5,5,0,0,1,4.49,2.4V34h2V46.06h-2V43.82a5.06,5.06,0,0,1-4.51,2.44c-3.21,0-5.7-2.53-5.7-6.27S264.22,33.8,267.45,33.8Zm.4,1.74c-2.2,0-4.07,1.61-4.07,4.45s1.87,4.51,4.07,4.51,4.09-1.65,4.09-4.49A4.13,4.13,0,0,0,267.85,35.54Z"/><path class="cls-3" d="M282.35,33.8a5.24,5.24,0,0,1,4.46,2.36V29.78h2V46.06h-2V43.79a4.94,4.94,0,0,1-4.49,2.47c-3.23,0-5.72-2.53-5.72-6.27S279.09,33.8,282.35,33.8Zm.37,1.74c-2.2,0-4.07,1.61-4.07,4.45s1.87,4.51,4.07,4.51,4.09-1.65,4.09-4.49A4.13,4.13,0,0,0,282.72,35.54Z"/><path class="cls-3" d="M297.48,46.26a5.86,5.86,0,0,1-6-6.25,6.1,6.1,0,1,1,12.19,0A6,6,0,0,1,297.48,46.26Zm0-1.76c2.09,0,4.14-1.43,4.14-4.49s-2-4.47-4.07-4.47-4,1.43-4,4.47S295.39,44.5,297.48,44.5Z"/><path class="cls-3" d="M310.57,46.26c-2.82,0-4.8-1.54-4.93-3.74h2.07c.11,1.16,1.15,2,2.84,2s2.46-.79,2.46-1.78c0-2.68-7.13-1.12-7.13-5.61,0-1.85,1.74-3.37,4.43-3.37s4.42,1.43,4.55,3.79h-2a2.32,2.32,0,0,0-2.62-2.09c-1.47,0-2.35.7-2.35,1.67,0,2.86,7,1.3,7.08,5.61C315,44.76,313.23,46.26,310.57,46.26Z"/></svg>