<svg id="Capa_1" data-name="Capa 1" xmlns="http://www.w3.org/2000/svg" viewBox="0 0 510.24 113.39"><defs><style>.cls-1{fill:#bcbcbb;stroke-dasharray:4 4 8 8;opacity:0.14;}.cls-1,.cls-2,.cls-3,.cls-4,.cls-5,.cls-6,.cls-8{stroke:#1d1d1b;stroke-miterlimit:10;}.cls-2,.cls-3,.cls-4,.cls-5,.cls-6,.cls-8{fill:none;}.cls-3{stroke-dasharray:7.54 7.54;}.cls-4{stroke-dasharray:3.77 3.77 7.54 7.54;}.cls-5{stroke-dasharray:8.52 8.52;}.cls-6{stroke-dasharray:4.26 4.26 8.52 8.52;}.cls-7{fill:#1d1d1b;}.cls-8{stroke-width:2px;}</style></defs><rect class="cls-1" width="510.24" height="113.39" rx="9.31"/><line class="cls-2" x1="127.56" x2="127.56" y2="2"/><line class="cls-3" x1="127.56" y1="5.77" x2="127.56" y2="17.09"/><line class="cls-4" x1="127.56" y1="20.86" x2="127.56" y2="107.61"/><line class="cls-2" x1="127.56" y1="111.39" x2="127.56" y2="113.39"/><line class="cls-2" x1="255.12" x2="255.12" y2="2"/><line class="cls-3" x1="255.12" y1="5.77" x2="255.12" y2="17.09"/><line class="cls-4" x1="255.12" y1="20.86" x2="255.12" y2="107.61"/><line class="cls-2" x1="255.12" y1="111.39" x2="255.12" y2="113.39"/><line class="cls-2" x1="382.68" x2="382.68" y2="2"/><line class="cls-3" x1="382.68" y1="5.77" x2="382.68" y2="17.09"/><line class="cls-4" x1="382.68" y1="20.86" x2="382.68" y2="107.61"/><line class="cls-2" x1="382.68" y1="111.39" x2="382.68" y2="113.39"/><line class="cls-2" x1="510.24" y1="56.69" x2="508.24" y2="56.69"/><line class="cls-5" x1="503.98" y1="56.69" x2="491.19" y2="56.69"/><line class="cls-6" x1="486.93" y1="56.69" x2="388.94" y2="56.69"/><line class="cls-2" x1="384.68" y1="56.69" x2="382.68" y2="56.69"/><path class="cls-7" d="M24.43,30.6h2.49L20.09,48.72H17.35L10.52,30.6H13l5.69,15.62Z"/><path class="cls-7" d="M35.4,34.24a5.91,5.91,0,0,1,5.3,2.83v-2.6h2.39V48.72H40.7V46.07A6,6,0,0,1,35.37,49c-3.79,0-6.73-3-6.73-7.41S31.58,34.24,35.4,34.24Zm.47,2c-2.6,0-4.81,1.9-4.81,5.25s2.21,5.33,4.81,5.33,4.83-1.95,4.83-5.3S38.47,36.29,35.87,36.29Z"/><path class="cls-7" d="M49.46,48.72H47.1V34.47h2.36v2.32a4.8,4.8,0,0,1,4.61-2.58v2.45h-.63c-2.26,0-4,1-4,4.31Z"/><path class="cls-7" d="M56.41,30.55a1.59,1.59,0,1,1,3.17,0,1.59,1.59,0,1,1-3.17,0Zm.39,3.92h2.36V48.72H56.8Z"/><path class="cls-7" d="M69.07,34.24a5.91,5.91,0,0,1,5.3,2.83v-2.6h2.39V48.72H74.37V46.07A6,6,0,0,1,69,49c-3.79,0-6.73-3-6.73-7.41S65.25,34.24,69.07,34.24Zm.47,2c-2.61,0-4.82,1.9-4.82,5.25s2.21,5.33,4.82,5.33,4.83-1.95,4.83-5.3S72.13,36.29,69.54,36.29Z"/><path class="cls-7" d="M88.46,34.24c3.85,0,6.76,2.86,6.76,7.3S92.29,49,88.46,49a6,6,0,0,1-5.33-2.86v2.63H80.77V29.48h2.36v7.64A6,6,0,0,1,88.46,34.24Zm-.49,2c-2.58,0-4.84,2-4.84,5.28s2.26,5.3,4.84,5.3,4.83-2,4.83-5.33S90.59,36.29,88,36.29Z"/><path class="cls-7" d="M98.34,29.48h2.37V48.72H98.34Z"/><path class="cls-7" d="M110.9,49c-4.06,0-7.05-2.86-7.05-7.38s2.89-7.33,7.05-7.33a6.53,6.53,0,0,1,6.84,6.81,13.26,13.26,0,0,1-.08,1.43H106.27A4.47,4.47,0,0,0,110.9,47a3.91,3.91,0,0,0,4-2.62h2.55A6.4,6.4,0,0,1,110.9,49Zm-4.6-8.39h9a4.17,4.17,0,0,0-4.49-4.32A4.41,4.41,0,0,0,106.3,40.56Z"/><path class="cls-7" d="M23.07,72.35H19.59v7.57H17.22V61.8h5.85c4.27,0,6.27,2.34,6.27,5.3C29.34,69.86,27.57,72.35,23.07,72.35Zm0-1.95c2.71,0,3.85-1.27,3.85-3.3s-1.14-3.35-3.85-3.35H19.59V70.4Z"/><path class="cls-7" d="M34.64,79.92H32.28V65.67h2.36V68a4.8,4.8,0,0,1,4.61-2.58v2.45h-.63c-2.26,0-4,1-4,4.31Z"/><path class="cls-7" d="M48.14,80.15c-4.06,0-7-2.86-7-7.38s2.89-7.33,7-7.33A6.53,6.53,0,0,1,55,72.25a13.26,13.26,0,0,1-.08,1.43H43.51a4.47,4.47,0,0,0,4.63,4.47,3.91,3.91,0,0,0,4-2.62h2.55A6.4,6.4,0,0,1,48.14,80.15Zm-4.6-8.39h9A4.18,4.18,0,0,0,48,67.44,4.41,4.41,0,0,0,43.54,71.76Z"/><path class="cls-7" d="M63.14,80.15c-3.33,0-5.67-1.82-5.82-4.42h2.44c.13,1.38,1.35,2.42,3.35,2.42S66,77.22,66,76.05c0-3.18-8.43-1.33-8.43-6.63,0-2.19,2.06-4,5.23-4s5.22,1.69,5.38,4.47H65.84c-.1-1.43-1.19-2.47-3.09-2.47-1.74,0-2.78.83-2.78,2,0,3.38,8.27,1.53,8.37,6.63C68.34,78.39,66.29,80.15,63.14,80.15Z"/><path class="cls-7" d="M77.88,80.15c-4,0-7.1-2.86-7.1-7.38a7.21,7.21,0,1,1,14.41,0A7.06,7.06,0,0,1,77.88,80.15Zm0-2.08c2.47,0,4.89-1.69,4.89-5.3S80.4,67.49,78,67.49s-4.76,1.69-4.76,5.28S75.41,78.07,77.88,78.07Z"/><path class="cls-7" d="M90.67,79.92H88.31V65.67h2.36V68a4.8,4.8,0,0,1,4.61-2.58v2.45h-.63c-2.26,0-4,1-4,4.31Z"/><path class="cls-7" d="M103.88,65.44a5.94,5.94,0,0,1,5.31,2.83v-2.6h2.39V79.92h-2.39V77.27a6,6,0,0,1-5.33,2.88c-3.8,0-6.74-3-6.74-7.41S100.06,65.44,103.88,65.44Zm.47,2c-2.6,0-4.81,1.9-4.81,5.25s2.21,5.33,4.81,5.33,4.84-1.95,4.84-5.3S107,67.49,104.35,67.49Z"/><path class="cls-7" d="M193.87,22.14h9v1.41h-3.62V35.39H197.5V23.55h-3.63Z"/><path class="cls-7" d="M212.79,32.44H207l-1.07,3h-1.82l4.79-13.17h2l4.77,13.17h-1.83Zm-2.89-8.09L207.51,31h4.79Z"/><path class="cls-7" d="M279.27,23.76a6.21,6.21,0,0,1,6.13,4h-2.07a4.16,4.16,0,0,0-4.06-2.49c-2.78,0-4.85,2-4.85,5.26s2.07,5.25,4.85,5.25a4.19,4.19,0,0,0,4.06-2.47h2.07a6.22,6.22,0,0,1-6.13,4,6.5,6.5,0,0,1-6.61-6.75A6.52,6.52,0,0,1,279.27,23.76Z"/><path class="cls-7" d="M292.26,26.59a4.33,4.33,0,0,1,3.88,2.07v-1.9h1.75V37.17h-1.75V35.23a4.34,4.34,0,0,1-3.9,2.11c-2.77,0-4.92-2.18-4.92-5.41S289.47,26.59,292.26,26.59Zm.34,1.5a3.52,3.52,0,0,0-3.51,3.84,3.54,3.54,0,1,0,7.05,0A3.58,3.58,0,0,0,292.6,28.09Z"/><path class="cls-7" d="M315.84,31.28c0-2.12-1.14-3.21-2.85-3.21s-2.94,1.12-2.94,3.36v5.74h-1.71V31.28c0-2.12-1.14-3.21-2.85-3.21s-2.95,1.12-2.95,3.36v5.74h-1.73V26.76h1.73v1.5a3.78,3.78,0,0,1,3.29-1.69,3.92,3.92,0,0,1,3.82,2.32,3.85,3.85,0,0,1,3.68-2.32c2.38,0,4.22,1.48,4.22,4.47v6.13h-1.71Z"/><path class="cls-7" d="M326,26.59c2.81,0,4.94,2.09,4.94,5.34s-2.15,5.41-4.94,5.41a4.36,4.36,0,0,1-3.9-2.09v1.92h-1.73V23.11h1.73V28.7A4.42,4.42,0,0,1,326,26.59Zm-.36,1.5A3.59,3.59,0,0,0,322.11,32a3.55,3.55,0,1,0,7.07,0A3.52,3.52,0,0,0,325.65,28.09Z"/><path class="cls-7" d="M332.94,23.89a1.17,1.17,0,0,1,1.18-1.18,1.18,1.18,0,1,1-1.18,1.18Zm.29,2.87H335V37.17h-1.73Z"/><path class="cls-7" d="M342.44,37.34A5.06,5.06,0,0,1,337.25,32a5.27,5.27,0,1,1,10.53,0A5.16,5.16,0,0,1,342.44,37.34Zm0-1.52A3.53,3.53,0,0,0,346,32a3.5,3.5,0,0,0-3.51-3.86c-1.83,0-3.48,1.24-3.48,3.86S340.64,35.82,342.44,35.82Z"/><path class="cls-7" d="M353.75,37.34c-2.43,0-4.14-1.33-4.26-3.23h1.79c.09,1,1,1.77,2.45,1.77s2.13-.68,2.13-1.54c0-2.32-6.16-1-6.16-4.84,0-1.6,1.5-2.91,3.82-2.91s3.82,1.24,3.93,3.27h-1.73a2,2,0,0,0-2.26-1.81c-1.27,0-2,.61-2,1.45,0,2.47,6,1.12,6.12,4.84C357.55,36.05,356.05,37.34,353.75,37.34Z"/><path class="cls-7" d="M277.8,60.14a5,5,0,0,1-5.14-5.39c0-3.29,2.1-5.36,5.14-5.36a4.78,4.78,0,0,1,5,5,8.81,8.81,0,0,1-.06,1h-8.32a3.28,3.28,0,0,0,3.38,3.27,2.87,2.87,0,0,0,2.93-1.92h1.86A4.68,4.68,0,0,1,277.8,60.14ZM274.44,54H281a3.05,3.05,0,0,0-3.28-3.16A3.23,3.23,0,0,0,274.44,54Z"/><path class="cls-7" d="M292.7,54.08c0-2.12-1.16-3.21-2.91-3.21s-3,1.1-3,3.35V60h-1.73V49.56h1.73V51a3.85,3.85,0,0,1,3.34-1.67c2.42,0,4.26,1.48,4.26,4.47V60H292.7Z"/><path class="cls-7" d="M277.5,82.9c-2.66,0-4.54-1.48-4.58-3.66h1.84a2.46,2.46,0,0,0,2.74,2.2c1.67,0,2.66-1,2.66-2.2C280.16,75.67,273,78,273,73c0-2.19,1.76-3.67,4.39-3.67s4.18,1.39,4.38,3.4h-1.89a2.42,2.42,0,0,0-2.57-1.92c-1.42,0-2.55.7-2.55,2.13,0,3.42,7.15,1.29,7.15,6.19C281.91,81,280.37,82.9,277.5,82.9Z"/><path class="cls-7" d="M288.75,72.19a4.32,4.32,0,0,1,3.87,2.07v-1.9h1.75V82.77h-1.75V80.83a4.31,4.31,0,0,1-3.89,2.11c-2.77,0-4.92-2.18-4.92-5.41S286,72.19,288.75,72.19Zm.34,1.5a3.51,3.51,0,0,0-3.51,3.84,3.53,3.53,0,1,0,3.51-3.84Z"/><path class="cls-7" d="M297.68,73.79h-1.35V72.36h1.35V69.74h1.73v2.62h2.71v1.43h-2.71v6.13c0,1,.38,1.39,1.44,1.39h1.27v1.46h-1.55c-1.85,0-2.89-.76-2.89-2.85Z"/><path class="cls-7" d="M313.45,82.77h-1.73V81.23a3.82,3.82,0,0,1-3.33,1.69c-2.39,0-4.27-1.48-4.27-4.46v-6.1h1.71v5.87c0,2.11,1.16,3.19,2.91,3.19s3-1.1,3-3.34V72.36h1.73Z"/><path class="cls-7" d="M318.1,82.77h-1.73V72.36h1.73v1.69a3.5,3.5,0,0,1,3.36-1.88V74H321c-1.65,0-2.91.74-2.91,3.15Z"/><path class="cls-7" d="M327.75,72.19a4.33,4.33,0,0,1,3.88,2.07v-1.9h1.75V82.77h-1.75V80.83a4.34,4.34,0,0,1-3.89,2.11c-2.78,0-4.93-2.18-4.93-5.41S325,72.19,327.75,72.19Zm.35,1.5a3.52,3.52,0,0,0-3.52,3.84,3.54,3.54,0,1,0,3.52-3.84Z"/><path class="cls-7" d="M340.73,72.19a4.54,4.54,0,0,1,4.81,3.52h-1.86a2.85,2.85,0,0,0-2.95-2.06c-1.9,0-3.3,1.35-3.3,3.9s1.4,3.93,3.3,3.93a2.8,2.8,0,0,0,2.95-2h1.86a4.64,4.64,0,0,1-4.81,3.51c-3,0-5.07-2.09-5.07-5.39S337.77,72.19,340.73,72.19Z"/><path class="cls-7" d="M347.55,69.49a1.16,1.16,0,0,1,1.18-1.17,1.18,1.18,0,0,1,0,2.35A1.16,1.16,0,0,1,347.55,69.49Zm.29,2.87h1.73V82.77h-1.73Z"/><path class="cls-7" d="M357.05,82.94a5.38,5.38,0,1,1,5.34-5.39A5.16,5.16,0,0,1,357.05,82.94Zm0-1.52a3.88,3.88,0,0,0,.06-7.73c-1.82,0-3.48,1.24-3.48,3.86S355.25,81.42,357.05,81.42ZM359,67.78v1.5l-4.05,2.17V70.16Z"/><path class="cls-7" d="M372.29,76.88c0-2.12-1.16-3.21-2.91-3.21s-3,1.1-3,3.35v5.75h-1.73V72.36h1.73v1.48a3.85,3.85,0,0,1,3.34-1.67c2.42,0,4.26,1.48,4.26,4.47v6.13h-1.71Z"/><path d="M439.63,37.3c-2.66,0-4.54-1.48-4.58-3.66h1.85a2.44,2.44,0,0,0,2.73,2.2c1.67,0,2.66-1,2.66-2.2,0-3.57-7.16-1.29-7.16-6.21,0-2.19,1.77-3.67,4.39-3.67s4.18,1.39,4.39,3.4H442a2.41,2.41,0,0,0-2.57-1.92c-1.42,0-2.54.7-2.54,2.13,0,3.42,7.14,1.29,7.14,6.19C444,35.44,442.5,37.3,439.63,37.3Z"/><path d="M450.88,26.59a4.33,4.33,0,0,1,3.88,2.07v-1.9h1.74V37.17h-1.74V35.23a4.34,4.34,0,0,1-3.9,2.11c-2.77,0-4.92-2.18-4.92-5.41S448.09,26.59,450.88,26.59Zm.34,1.5a3.51,3.51,0,0,0-3.51,3.84,3.54,3.54,0,1,0,7.05,0A3.58,3.58,0,0,0,451.22,28.09Z"/><path d="M459.81,28.19h-1.35V26.76h1.35V24.14h1.73v2.62h2.72v1.43h-2.72v6.13c0,1,.38,1.39,1.44,1.39h1.28v1.46H462.7c-1.84,0-2.89-.76-2.89-2.85Z"/><path d="M473.53,23.7a2.65,2.65,0,0,1,2.77,2.83,2.78,2.78,0,1,1-5.55,0A2.66,2.66,0,0,1,473.53,23.7Zm-1.39,2.83c0,1.18.55,1.79,1.39,1.79s1.4-.61,1.4-1.79-.57-1.76-1.4-1.76S472.14,25.34,472.14,26.53Zm8-2.62h1.71l-7.69,13.26h-1.71Zm.66,7.79a2.65,2.65,0,0,1,2.76,2.85,2.77,2.77,0,1,1-5.53,0A2.65,2.65,0,0,1,480.8,31.7Zm-1.42,2.85c0,1.18.57,1.75,1.41,1.75s1.4-.57,1.4-1.75-.57-1.77-1.4-1.77S479.38,33.35,479.38,34.55Z"/><line class="cls-2" x1="253.73" y1="56.69" x2="251.73" y2="56.69"/><line class="cls-5" x1="247.47" y1="56.69" x2="234.68" y2="56.69"/><line class="cls-6" x1="230.42" y1="56.69" x2="132.43" y2="56.69"/><line class="cls-2" x1="128.17" y1="56.69" x2="126.17" y2="56.69"/><polygon class="cls-8" points="183.39 23.8 186.67 29.48 189.95 35.16 183.39 35.16 176.83 35.16 180.11 29.48 183.39 23.8"/><polygon class="cls-8" points="422.95 24.8 426.23 30.48 429.51 36.16 422.95 36.16 416.39 36.16 419.67 30.48 422.95 24.8"/></svg>