<svg id="Capa_1" data-name="Capa 1" xmlns="http://www.w3.org/2000/svg" viewBox="0 0 511.45 116.58"><defs><style>.cls-1{fill:#f4f1bb;}.cls-2,.cls-4{fill:none;stroke:#1d1d1b;stroke-miterlimit:10;}.cls-2{stroke-width:0.25px;}.cls-3{fill:#1d1d1b;}.cls-4{stroke-width:2px;}</style></defs><rect class="cls-1" x="0.61" y="3.22" width="126.37" height="109.94" rx="9.31"/><rect class="cls-2" x="0.61" y="3.22" width="510.24" height="109.94" rx="9.31"/><path class="cls-3" d="M23.49,35.45H26L19.14,53.57H16.41L9.58,35.45H12.1l5.69,15.62Z"/><path class="cls-3" d="M34.46,39.09a5.91,5.91,0,0,1,5.3,2.83v-2.6h2.39V53.57H39.76V50.92a6,6,0,0,1-5.33,2.88c-3.79,0-6.73-3-6.73-7.41S30.64,39.09,34.46,39.09Zm.46,2c-2.59,0-4.8,1.9-4.8,5.25s2.21,5.33,4.8,5.33,4.84-1.95,4.84-5.3S37.53,41.14,34.92,41.14Z"/><path class="cls-3" d="M48.52,53.57H46.16V39.32h2.36v2.31a4.81,4.81,0,0,1,4.6-2.57V41.5H52.5c-2.26,0-4,1-4,4.32Z"/><path class="cls-3" d="M55.46,35.39A1.59,1.59,0,1,1,57.08,37,1.59,1.59,0,0,1,55.46,35.39Zm.39,3.93h2.37V53.57H55.85Z"/><path class="cls-3" d="M68.13,39.09a5.91,5.91,0,0,1,5.3,2.83v-2.6h2.39V53.57H73.43V50.92A6,6,0,0,1,68.1,53.8c-3.8,0-6.73-3-6.73-7.41S64.3,39.09,68.13,39.09Zm.46,2c-2.6,0-4.81,1.9-4.81,5.25s2.21,5.33,4.81,5.33,4.84-1.95,4.84-5.3S71.19,41.14,68.59,41.14Z"/><path class="cls-3" d="M87.52,39.09c3.85,0,6.76,2.86,6.76,7.3s-2.94,7.41-6.76,7.41a6,6,0,0,1-5.33-2.86v2.63H79.83V34.33h2.36V42A6,6,0,0,1,87.52,39.09Zm-.49,2c-2.58,0-4.84,2-4.84,5.28s2.26,5.3,4.84,5.3,4.83-2,4.83-5.33S89.65,41.14,87,41.14Z"/><path class="cls-3" d="M97.4,34.33h2.37V53.57H97.4Z"/><path class="cls-3" d="M110,53.8c-4.06,0-7-2.86-7-7.38s2.89-7.33,7-7.33a6.53,6.53,0,0,1,6.84,6.81,13.41,13.41,0,0,1-.08,1.43H105.33A4.48,4.48,0,0,0,110,51.8a3.91,3.91,0,0,0,4-2.63h2.55A6.4,6.4,0,0,1,110,53.8Zm-4.6-8.4h9a4.17,4.17,0,0,0-4.5-4.31A4.4,4.4,0,0,0,105.36,45.4Z"/><path class="cls-3" d="M22.13,77.2H18.65v7.57H16.28V66.65h5.85c4.27,0,6.27,2.34,6.27,5.3C28.4,74.71,26.63,77.2,22.13,77.2Zm0-2C24.84,75.25,26,74,26,72s-1.14-3.35-3.85-3.35H18.65v6.65Z"/><path class="cls-3" d="M33.7,84.77H31.34V70.52H33.7v2.31a4.81,4.81,0,0,1,4.61-2.57V72.7h-.63c-2.26,0-4,1-4,4.32Z"/><path class="cls-3" d="M47.2,85c-4.06,0-7.05-2.86-7.05-7.38S43,70.29,47.2,70.29A6.53,6.53,0,0,1,54,77.1,13.41,13.41,0,0,1,54,78.53H42.57A4.48,4.48,0,0,0,47.2,83a3.91,3.91,0,0,0,4-2.63h2.55A6.41,6.41,0,0,1,47.2,85Zm-4.61-8.4h9a4.17,4.17,0,0,0-4.5-4.31A4.41,4.41,0,0,0,42.59,76.6Z"/><path class="cls-3" d="M62.2,85c-3.33,0-5.67-1.82-5.83-4.42h2.45C59,82,60.17,83,62.17,83s2.91-.94,2.91-2.11c0-3.17-8.42-1.32-8.42-6.63,0-2.18,2.05-4,5.23-4s5.22,1.69,5.38,4.47H64.9c-.1-1.43-1.19-2.47-3.09-2.47-1.74,0-2.78.83-2.78,2,0,3.38,8.27,1.54,8.37,6.63C67.4,83.23,65.34,85,62.2,85Z"/><path class="cls-3" d="M76.94,85c-4,0-7.1-2.86-7.1-7.38a7.21,7.21,0,1,1,14.41,0A7.06,7.06,0,0,1,76.94,85Zm0-2.08c2.47,0,4.89-1.69,4.89-5.3S79.46,72.34,77,72.34,72.26,74,72.26,77.62,74.47,82.92,76.94,82.92Z"/><path class="cls-3" d="M89.73,84.77H87.37V70.52h2.36v2.31a4.81,4.81,0,0,1,4.6-2.57V72.7h-.62c-2.26,0-4,1-4,4.32Z"/><path class="cls-3" d="M102.94,70.29a5.94,5.94,0,0,1,5.31,2.83v-2.6h2.39V84.77h-2.39V82.12A6,6,0,0,1,102.91,85c-3.79,0-6.73-3-6.73-7.41S99.12,70.29,102.94,70.29Zm.47,2c-2.6,0-4.81,1.9-4.81,5.25s2.21,5.33,4.81,5.33,4.84-2,4.84-5.3S106,72.34,103.41,72.34Z"/><path class="cls-3" d="M192.93,27h9V28.4h-3.61V40.23h-1.72V28.4h-3.63Z"/><path class="cls-3" d="M211.85,37.29h-5.77L205,40.23h-1.82L208,27.07h2l4.77,13.16h-1.83ZM209,29.2l-2.39,6.68h4.79Z"/><path class="cls-3" d="M278.33,28.61a6.22,6.22,0,0,1,6.13,4h-2.07a4.16,4.16,0,0,0-4.06-2.49c-2.78,0-4.85,2-4.85,5.26s2.07,5.24,4.85,5.24a4.17,4.17,0,0,0,4.06-2.47h2.07a6.21,6.21,0,0,1-6.13,4,6.5,6.5,0,0,1-6.62-6.74A6.53,6.53,0,0,1,278.33,28.61Z"/><path class="cls-3" d="M291.32,31.44a4.33,4.33,0,0,1,3.88,2.07v-1.9H297V42H295.2V40.08a4.36,4.36,0,0,1-3.9,2.11c-2.77,0-4.92-2.18-4.92-5.41S288.53,31.44,291.32,31.44Zm.34,1.5a3.51,3.51,0,0,0-3.51,3.84,3.54,3.54,0,1,0,7.05,0A3.57,3.57,0,0,0,291.66,32.94Z"/><path class="cls-3" d="M314.9,36.13c0-2.13-1.14-3.21-2.85-3.21s-2.94,1.12-2.94,3.36V42H307.4V36.13c0-2.13-1.14-3.21-2.85-3.21S301.6,34,301.6,36.28V42h-1.73V31.61h1.73v1.5a3.78,3.78,0,0,1,3.29-1.69,3.92,3.92,0,0,1,3.82,2.32,3.85,3.85,0,0,1,3.68-2.32c2.38,0,4.22,1.48,4.22,4.46V42H314.9Z"/><path class="cls-3" d="M325.07,31.44c2.81,0,4.94,2.09,4.94,5.34s-2.15,5.41-4.94,5.41a4.36,4.36,0,0,1-3.9-2.09V42h-1.73V28h1.73v5.59A4.42,4.42,0,0,1,325.07,31.44Zm-.37,1.5a3.58,3.58,0,0,0-3.53,3.86,3.55,3.55,0,1,0,7.07,0A3.53,3.53,0,0,0,324.7,32.94Z"/><path class="cls-3" d="M332,28.74a1.16,1.16,0,1,1,2.32,0,1.16,1.16,0,1,1-2.32,0Zm.29,2.87H334V42h-1.73Z"/><path class="cls-3" d="M341.5,42.19a5.06,5.06,0,0,1-5.19-5.39,5.27,5.27,0,1,1,10.53,0A5.16,5.16,0,0,1,341.5,42.19Zm0-1.52a3.53,3.53,0,0,0,3.57-3.87c0-2.63-1.73-3.86-3.51-3.86s-3.48,1.23-3.48,3.86S339.7,40.67,341.5,40.67Z"/><path class="cls-3" d="M352.81,42.19c-2.44,0-4.15-1.33-4.26-3.23h1.79c.09,1,1,1.77,2.45,1.77s2.12-.68,2.12-1.54c0-2.32-6.15-1-6.15-4.84,0-1.6,1.5-2.91,3.82-2.91s3.82,1.23,3.93,3.27h-1.73a2,2,0,0,0-2.26-1.81c-1.27,0-2,.61-2,1.45,0,2.47,6,1.12,6.12,4.84C356.61,40.9,355.11,42.19,352.81,42.19Z"/><path class="cls-3" d="M276.86,65a5,5,0,0,1-5.15-5.39c0-3.29,2.11-5.36,5.15-5.36a4.78,4.78,0,0,1,5,5,8.81,8.81,0,0,1-.06,1h-8.32a3.28,3.28,0,0,0,3.38,3.27,2.87,2.87,0,0,0,2.93-1.92h1.86A4.68,4.68,0,0,1,276.86,65Zm-3.36-6.13h6.57a3.05,3.05,0,0,0-3.28-3.16A3.23,3.23,0,0,0,273.5,58.86Z"/><path class="cls-3" d="M291.76,58.93c0-2.13-1.16-3.21-2.91-3.21s-3,1.1-3,3.34v5.76h-1.73V54.41h1.73v1.48a3.85,3.85,0,0,1,3.34-1.67c2.42,0,4.26,1.48,4.26,4.46v6.14h-1.71Z"/><path class="cls-3" d="M276.56,87.75c-2.66,0-4.54-1.48-4.58-3.66h1.84a2.46,2.46,0,0,0,2.74,2.2c1.67,0,2.66-1,2.66-2.2,0-3.57-7.16-1.29-7.16-6.21,0-2.19,1.76-3.67,4.39-3.67s4.17,1.39,4.38,3.4h-1.9a2.4,2.4,0,0,0-2.56-1.92c-1.42,0-2.55.7-2.55,2.13,0,3.42,7.15,1.29,7.15,6.19C281,85.89,279.43,87.75,276.56,87.75Z"/><path class="cls-3" d="M287.81,77a4.32,4.32,0,0,1,3.87,2.07v-1.9h1.75V87.62h-1.75V85.68a4.33,4.33,0,0,1-3.89,2.11c-2.78,0-4.92-2.18-4.92-5.41S285,77,287.81,77Zm.34,1.5a3.52,3.52,0,0,0-3.52,3.84,3.54,3.54,0,1,0,3.52-3.84Z"/><path class="cls-3" d="M296.74,78.63h-1.35V77.21h1.35V74.59h1.73v2.62h2.71v1.42h-2.71v6.14c0,1,.38,1.39,1.44,1.39h1.27v1.46h-1.55c-1.85,0-2.89-.76-2.89-2.85Z"/><path class="cls-3" d="M312.51,87.62h-1.73V86.08a3.85,3.85,0,0,1-3.33,1.69c-2.39,0-4.27-1.48-4.27-4.46v-6.1h1.71v5.87c0,2.11,1.16,3.19,2.91,3.19s3-1.1,3-3.34V77.21h1.73Z"/><path class="cls-3" d="M317.16,87.62h-1.73V77.21h1.73V78.9A3.5,3.5,0,0,1,320.52,77v1.79h-.45c-1.65,0-2.91.74-2.91,3.15Z"/><path class="cls-3" d="M326.81,77a4.33,4.33,0,0,1,3.88,2.07v-1.9h1.75V87.62h-1.75V85.68a4.36,4.36,0,0,1-3.9,2.11c-2.77,0-4.92-2.18-4.92-5.41S324,77,326.81,77Zm.35,1.5a3.52,3.52,0,0,0-3.52,3.84,3.54,3.54,0,1,0,3.52-3.84Z"/><path class="cls-3" d="M339.79,77a4.54,4.54,0,0,1,4.81,3.51h-1.86a2.85,2.85,0,0,0-2.95-2c-1.9,0-3.3,1.35-3.3,3.9s1.4,3.93,3.3,3.93a2.8,2.8,0,0,0,2.95-2h1.86a4.64,4.64,0,0,1-4.81,3.51c-3,0-5.07-2.09-5.07-5.39S336.83,77,339.79,77Z"/><path class="cls-3" d="M346.61,74.34a1.16,1.16,0,1,1,2.32,0,1.16,1.16,0,1,1-2.32,0Zm.29,2.87h1.73V87.62H346.9Z"/><path class="cls-3" d="M356.11,87.79a5.38,5.38,0,1,1,5.34-5.39A5.16,5.16,0,0,1,356.11,87.79Zm0-1.52a3.53,3.53,0,0,0,3.57-3.87c0-2.63-1.73-3.86-3.51-3.86s-3.48,1.23-3.48,3.86S354.31,86.27,356.11,86.27Zm1.94-13.64v1.5L354,76.3V75Z"/><path class="cls-3" d="M371.35,81.73c0-2.13-1.16-3.21-2.91-3.21s-3,1.1-3,3.34v5.76h-1.73V77.21h1.73v1.48A3.85,3.85,0,0,1,368.8,77c2.42,0,4.26,1.48,4.26,4.46v6.14h-1.71Z"/><path d="M438.69,42.15c-2.66,0-4.54-1.48-4.58-3.66H436a2.44,2.44,0,0,0,2.73,2.2c1.67,0,2.66-.95,2.66-2.2,0-3.57-7.16-1.29-7.16-6.22,0-2.18,1.77-3.66,4.39-3.66S442.76,30,443,32h-1.9a2.41,2.41,0,0,0-2.57-1.92c-1.42,0-2.54.7-2.54,2.13,0,3.42,7.14,1.29,7.14,6.19C443.1,40.29,441.56,42.15,438.69,42.15Z"/><path d="M449.94,31.44a4.33,4.33,0,0,1,3.88,2.07v-1.9h1.74V42h-1.74V40.08a4.36,4.36,0,0,1-3.9,2.11c-2.77,0-4.92-2.18-4.92-5.41S447.15,31.44,449.94,31.44Zm.34,1.5a3.51,3.51,0,0,0-3.51,3.84,3.54,3.54,0,1,0,7.05,0A3.57,3.57,0,0,0,450.28,32.94Z"/><path d="M458.87,33h-1.35V31.61h1.35V29h1.73v2.62h2.72V33H460.6v6.14c0,1,.38,1.39,1.44,1.39h1.28V42h-1.56c-1.85,0-2.89-.76-2.89-2.85Z"/><path d="M472.59,28.55a2.65,2.65,0,0,1,2.77,2.83,2.78,2.78,0,1,1-5.55,0A2.66,2.66,0,0,1,472.59,28.55Zm-1.39,2.83c0,1.18.55,1.79,1.39,1.79s1.4-.61,1.4-1.79-.57-1.76-1.4-1.76S471.2,30.19,471.2,31.38Zm8-2.62h1.71L473.21,42H471.5Zm.66,7.79a2.65,2.65,0,0,1,2.76,2.85,2.77,2.77,0,1,1-5.53,0A2.65,2.65,0,0,1,479.86,36.55Zm-1.42,2.85c0,1.18.57,1.75,1.4,1.75s1.41-.57,1.41-1.75-.57-1.77-1.41-1.77S478.44,38.2,478.44,39.4Z"/><polygon class="cls-4" points="182.45 28.65 185.73 34.33 189.01 40.01 182.45 40.01 175.89 40.01 179.17 34.33 182.45 28.65"/><polygon class="cls-4" points="422.01 29.65 425.29 35.33 428.57 41.01 422.01 41.01 415.45 41.01 418.73 35.33 422.01 29.65"/></svg>