<svg id="Capa_1" data-name="Capa 1" xmlns="http://www.w3.org/2000/svg" viewBox="0 0 965.58 327.85"><defs><style>.cls-1{fill:#32393c;}.cls-1,.cls-2,.cls-3{stroke:#1e1e1c;stroke-miterlimit:10;}.cls-2{fill:#d9d9d9;}.cls-3{fill:none;stroke-width:6px;}</style></defs><path class="cls-1" d="M75,0H309.54V327.86H75a75,75,0,0,1-75-75V75A75,75,0,0,1,75,0Z"/><polygon class="cls-2" points="241.16 64.17 241.16 263.68 68.38 163.93 241.16 64.17"/><path class="cls-1" d="M890.58,0a75,75,0,0,1,75,75V252.85a75,75,0,0,1-75,75H656V0Z"/><polygon class="cls-2" points="897.2 163.93 724.42 263.68 724.42 64.17 897.2 163.93"/><rect class="cls-1" x="309.54" width="346.5" height="327.85"/><line class="cls-3" x1="309.54" x2="309.54" y2="327.85"/><line class="cls-3" x1="656.04" x2="656.04" y2="327.85"/></svg>